<?xml version="1.0" standalone="no"?><!DOCTYPE svg PUBLIC "-//W3C//DTD SVG 1.1//EN" "http://www.w3.org/Graphics/SVG/1.1/DTD/svg11.dtd"><svg t="1694757902449" class="icon" viewBox="0 0 1024 1024" version="1.1" xmlns="http://www.w3.org/2000/svg" p-id="1662" xmlns:xlink="http://www.w3.org/1999/xlink" width="48" height="48"><path d="M512 512m-512 0a512 512 0 1 0 1024 0 512 512 0 1 0-1024 0Z" fill="#27BEC4" p-id="1663"></path><path d="M713.142 841.142c20.118 0 36.572-16.456 36.572-36.57V219.428c0-20.116-16.456-36.57-36.572-36.57H310.858c-20.118 0-36.572 16.456-36.572 36.57v585.144c0 20.116 16.456 36.57 36.572 36.57h402.284z" fill="#1B191C" p-id="1664"></path><path d="M713.142 804.572c20.118 0 36.572-16.458 36.572-36.572V219.428c0-20.116-16.456-36.57-36.572-36.57H310.858c-20.118 0-36.572 16.456-36.572 36.57V768c0 20.116 16.456 36.572 36.572 36.572h402.284z" fill="#3F3D40" p-id="1665"></path><path d="M722.286 210.286m-9.142 0a9.142 9.142 0 1 0 18.284 0 9.142 9.142 0 1 0-18.284 0Z" fill="#1B191C" p-id="1666"></path><path d="M301.714 210.286m-9.142 0a9.142 9.142 0 1 0 18.284 0 9.142 9.142 0 1 0-18.284 0Z" fill="#1B191C" p-id="1667"></path><path d="M301.714 777.142m-9.142 0a9.142 9.142 0 1 0 18.284 0 9.142 9.142 0 1 0-18.284 0Z" fill="#1B191C" p-id="1668"></path><path d="M722.286 777.142m-9.142 0a9.142 9.142 0 1 0 18.284 0 9.142 9.142 0 1 0-18.284 0Z" fill="#1B191C" p-id="1669"></path><path d="M301.714 493.714m-9.142 0a9.142 9.142 0 1 0 18.284 0 9.142 9.142 0 1 0-18.284 0Z" fill="#1B191C" p-id="1670"></path><path d="M722.286 493.714m-9.142 0a9.142 9.142 0 1 0 18.284 0 9.142 9.142 0 1 0-18.284 0Z" fill="#1B191C" p-id="1671"></path><path d="M329.142 822.858h164.572v18.286h-164.572z" fill="#3F3D40" p-id="1672"></path><path d="M329.142 822.858h164.572V832h-164.572z" fill="#3F3D40" p-id="1673"></path><path d="M641.294 549.866c-71.406 71.412-187.188 71.412-258.598 0.006-71.412-71.406-71.412-187.194 0-258.604 71.406-71.406 187.192-71.406 258.598 0 71.412 71.41 71.412 187.196 0 258.598z" fill="#1B191C" p-id="1674"></path><path d="M634.81 271.876l25.856 25.864-12.93 12.926L621.88 284.8z" fill="#1B191C" p-id="1675"></path><path d="M512 374.858m-109.714 0a109.714 109.714 0 1 0 219.428 0 109.714 109.714 0 1 0-219.428 0Z" fill="#3F3D40" p-id="1676"></path><path d="M329.142 420.572h365.714v329.142H329.142z" fill="#1B191C" p-id="1677"></path><path d="M685.714 420.572c0 95.932-77.782 173.712-173.714 173.712s-173.714-77.782-173.714-173.712c0-95.934 77.782-173.714 173.714-173.714s173.714 77.78 173.714 173.714z" fill="#F0F0F0" p-id="1678"></path><path d="M512 420.572m-73.142 0a73.142 73.142 0 1 0 146.284 0 73.142 73.142 0 1 0-146.284 0Z" fill="#C4C3C4" p-id="1679"></path><path d="M512 420.572m-45.714 0a45.714 45.714 0 1 0 91.428 0 45.714 45.714 0 1 0-91.428 0Z" fill="#F0F0F0" p-id="1680"></path><path d="M512 420.572m-36.572 0a36.572 36.572 0 1 0 73.144 0 36.572 36.572 0 1 0-73.144 0Z" fill="#C4C3C4" p-id="1681"></path><path d="M478.326 469.75c1.264-2.188 4.058-2.934 6.246-1.67s2.938 4.054 1.674 6.242a4.572 4.572 0 1 1-7.92-4.572z" fill="#F0F0F0" p-id="1682"></path><path d="M541.714 369.108m-4.572 0a4.572 4.572 0 1 0 9.144 0 4.572 4.572 0 1 0-9.144 0Z" fill="#F0F0F0" p-id="1683"></path><path d="M458.25 446.326a4.564 4.564 0 0 1 6.24 1.674 4.568 4.568 0 0 1-1.668 6.246 4.574 4.574 0 1 1-4.572-7.92zM561.178 386.896a4.572 4.572 0 1 1 4.572 7.92 4.572 4.572 0 0 1-4.572-7.92z" fill="#F0F0F0" p-id="1684"></path><path d="M452.572 420.572m-4.572 0a4.572 4.572 0 1 0 9.144 0 4.572 4.572 0 1 0-9.144 0Z" fill="#F0F0F0" p-id="1685"></path><path d="M571.428 420.572m-4.572 0a4.572 4.572 0 1 0 9.144 0 4.572 4.572 0 1 0-9.144 0Z" fill="#F0F0F0" p-id="1686"></path><path d="M462.822 386.896a4.568 4.568 0 0 1 1.668 6.246 4.564 4.564 0 0 1-6.24 1.674 4.57 4.57 0 0 1-1.678-6.244 4.58 4.58 0 0 1 6.25-1.676zM565.754 446.326a4.57 4.57 0 0 1 1.67 6.246 4.57 4.57 0 1 1-7.914-4.572 4.566 4.566 0 0 1 6.244-1.674z" fill="#F0F0F0" p-id="1687"></path><path d="M486.246 366.822c1.264 2.188 0.514 4.976-1.674 6.24s-4.982 0.518-6.246-1.67a4.572 4.572 0 0 1 7.92-4.57z" fill="#F0F0F0" p-id="1688"></path><path d="M541.714 472.036m-4.572 0a4.572 4.572 0 1 0 9.144 0 4.572 4.572 0 1 0-9.144 0Z" fill="#F0F0F0" p-id="1689"></path><path d="M512 361.142m-4.572 0a4.572 4.572 0 1 0 9.144 0 4.572 4.572 0 1 0-9.144 0Z" fill="#F0F0F0" p-id="1690"></path><path d="M512 480m-4.572 0a4.572 4.572 0 1 0 9.144 0 4.572 4.572 0 1 0-9.144 0Z" fill="#F0F0F0" p-id="1691"></path><path d="M512 420.572m-9.142 0a9.142 9.142 0 1 0 18.284 0 9.142 9.142 0 1 0-18.284 0Z" fill="#3F3D40" p-id="1692"></path><path d="M420.566 676.572h73.148v54.856h-73.148z" fill="#3F3D40" p-id="1693"></path><path d="M603.428 676.572h73.148v54.856h-73.148z" fill="#FF642F" p-id="1694"></path><path d="M347.428 676.572h73.148v54.856h-73.148z" fill="#3F3D40" p-id="1695"></path><path d="M347.428 585.142h54.858v73.148h-54.858z" fill="#3F3D40" p-id="1696"></path><path d="M347.428 658.282h54.858v73.146h-54.858z" fill="#3F3D40" p-id="1697"></path><path d="M402.286 658.286v18.288h18.288a18.29 18.29 0 0 1-18.288-18.288z" fill="#3F3D40" p-id="1698"></path><path d="M566.264 512.598L430.5 622.5l25.858 25.862z" fill="#C4C3C4" p-id="1699"></path><path d="M430.5 622.5a18.292 18.292 0 0 0 0 25.866c7.134 7.134 18.714 7.134 25.858-0.004s7.138-18.718 0-25.858c-7.144-7.138-18.72-7.142-25.858-0.004z" fill="#C4C3C4" p-id="1700"></path><path d="M436.964 628.964a9.144 9.144 0 0 0 12.928 12.932 9.138 9.138 0 0 0 0-12.928 9.14 9.14 0 0 0-12.928-0.004z" fill="#3F3D40" p-id="1701"></path></svg>