<svg class="icon" style="width: 1em;height: 1em;vertical-align: middle;fill: currentColor;overflow: hidden;" viewBox="0 0 1024 1024" version="1.1" xmlns="http://www.w3.org/2000/svg"><path d="M511.999693 0.000614c282.76719 0 511.999693 229.232502 511.999693 511.999693s-229.232502 511.999693-511.999693 511.999693S0 794.767498 0 512.000307 229.232502 0.000614 511.999693 0.000614z" fill="#3DB39E" /><path d="M511.999693 0.000614C384.993049 0.000614 268.881759 46.346827 179.394452 122.921501L102.399939 557.4454h819.199508l-76.994514-434.523899C755.117627 46.346827 639.006337 0.000614 511.999693 0.000614z" fill="#F2D27E" /><path d="M233.0213 82.770485L163.839902 532.480295h696.319582L798.565921 87.665202A509.593294 509.593294 0 0 0 511.999693 0.000614a509.501134 509.501134 0 0 0-278.978393 82.769871z" fill="#EFC75E" /><path d="M522.239687 51.200584l0.389119-50.93373L511.999693 0.000614l-10.199034 0.256-0.12288 15.308791c-0.21504 4.802557-3.317758 9.492474-7.751675 13.086712 0 0-75.345875 46.622692-75.601875 46.766052v0.01024C408.114955 82.299445 400.2404 91.781679 399.35976 102.400553v40.959975c-14.059512 3.471358-29.603822 14.069752-30.719981 25.405425-1.454079 14.622711 13.731832 26.705904 33.925099 26.705904 20.213748 0 37.201898-12.093433 37.928938-26.705904 0.5632-11.335673-7.096316-21.934067-20.654068-25.405425 0.33792-5.099517-0.5632-17.541109 0.9216-39.935976 0.54272-5.437437 4.136958-10.670074 8.980474-14.632951l71.710677-45.025253L501.759699 317.440424h-30.719982l41.277416 61.439963L552.959668 317.440424h-30.719981V102.400553l76.287954 47.493091c5.089277 4.331517 8.857595 10.055674 9.431034 15.984631C610.057874 197.683696 614.399631 215.040485 614.399631 215.040485h-30.719981v51.19997h81.919951v-51.19997h-30.719982l-3.184638-48.65021c-0.962559-11.612153-10.598394-23.572466-21.278707-31.078382l-78.981073-50.913249C526.816964 80.476726 522.454727 76.872248 522.239687 71.680571V51.200584z" fill="#BF9F4B" /><path d="M204.799877 460.800338h614.399631c56.555486 0 102.399939 45.854692 102.399939 102.399938 0 56.555486-45.844452 102.399939-102.399939 102.399939H204.799877c-56.555486 0-102.399939-45.844452-102.399938-102.399939 0-56.545246 45.844452-102.399939 102.399938-102.399938z" fill="#D7B354" /><path d="M255.999846 747.520166h511.999693v92.159945a20.479988 20.479988 0 0 1-20.479988 20.479987H276.479834a20.479988 20.479988 0 0 1-20.479988-20.479987v-92.159945z" fill="#CBCBCB" /><path d="M276.479834 768.430233h471.039717V839.680111H276.479834v-71.249878z" fill="#57C7ED" /><path d="M276.479834 768.430233h471.039717v40.959976H276.479834z" fill="#4EB3D5" /><path d="M378.879773 788.480141h30.719981v-20.049908h-30.719981V788.480141z m81.919951 0h30.719981v-20.049908h-30.719981V788.480141z m81.91995 0h30.719982v-20.049908h-30.719982V788.480141z m81.919951-20.049908V788.480141h30.719982v-20.049908h-30.719982z" fill="#46A1BF" /><path d="M743.863874 535.101733A14.499831 14.499831 0 0 0 729.456202 522.240301H294.369103c-7.270396 0-13.393912 5.457917-14.213111 12.697592L255.999846 747.520166v20.479988a20.479988 20.479988 0 0 1 20.479988-20.479988h471.039717a20.479988 20.479988 0 0 1 20.479988 20.479988v-20.479988l-24.135665-212.418433z" fill="#F0F0F0" /><path d="M409.599754 604.160252c-16.95743 0-30.719982 11.458553-30.719981 25.599985s13.762552 25.599985 30.719981 25.599984 30.719982-11.458553 30.719982-25.599984-13.762552-25.599985-30.719982-25.599985z m204.799877 0c-16.95743 0-30.719982 11.458553-30.719981 25.599985s13.762552 25.599985 30.719981 25.599984 30.719982-11.458553 30.719982-25.599984-13.762552-25.599985-30.719982-25.599985z" fill="#C0C0C0" /><path d="M294.369103 522.240301c-7.270396 0-13.393912 5.457917-14.213111 12.697592l-2.047999 18.02239h467.783399l-2.027518-17.85855A14.499831 14.499831 0 0 0 729.456202 522.240301H294.369103z" fill="#D8D8D8" /></svg>