<?xml version="1.0" standalone="no"?><!DOCTYPE svg PUBLIC "-//W3C//DTD SVG 1.1//EN" "http://www.w3.org/Graphics/SVG/1.1/DTD/svg11.dtd"><svg t="1697176561621" class="icon" viewBox="0 0 1024 1024" version="1.1" xmlns="http://www.w3.org/2000/svg" p-id="4935" xmlns:xlink="http://www.w3.org/1999/xlink" width="48" height="48"><path d="M921.99936 910.49984H102.00064a39.56224 39.56224 0 0 1-39.59808-39.59808V224.30208a39.56224 39.56224 0 0 1 39.59808-39.59808h819.99872a39.56224 39.56224 0 0 1 39.59808 39.59808v646.59968c0.00512 21.79584-17.79712 39.59808-39.59808 39.59808z" fill="#53B04E" p-id="4936"></path><path d="M512 354.89792H62.40256V153.09824a39.56224 39.56224 0 0 1 39.59808-39.59808H409.7024a39.4496 39.4496 0 0 1 37.89824 28.20096L512 354.89792z" fill="#53B04E" p-id="4937"></path><path d="M859.6992 861.30176H164.3008a39.56224 39.56224 0 0 1-39.59808-39.59808V284.6976a39.56224 39.56224 0 0 1 39.59808-39.59808h695.5008a39.56224 39.56224 0 0 1 39.59808 39.59808v537.00096c0 21.80096-17.79712 39.6032-39.70048 39.6032z" fill="#FFFFFF" p-id="4938"></path><path d="M921.99936 910.49984H102.00064a39.56224 39.56224 0 0 1-39.59808-39.59808V359.10144a39.56224 39.56224 0 0 1 39.59808-39.59808h819.99872a39.56224 39.56224 0 0 1 39.59808 39.59808v511.80032c0.00512 21.79584-17.79712 39.59808-39.59808 39.59808z" fill="#6ABC70" p-id="4939"></path><path d="M667.89376 622.85312H551.0144a38.95808 38.95808 0 0 1-38.9632-38.95808v-116.8896a38.9632 38.9632 0 0 1 38.9632-38.9632h116.87936a38.9632 38.9632 0 0 1 38.9632 38.9632v116.8896a38.95296 38.95296 0 0 1-38.9632 38.95808z m0-140.2624a15.57504 15.57504 0 0 0-15.58016-15.58016h-85.71392a15.58016 15.58016 0 0 0-15.58528 15.58016v85.71392a15.58016 15.58016 0 0 0 15.58528 15.5904h85.71392a15.58016 15.58016 0 0 0 15.58016-15.5904V482.59072zM512.0512 778.7008a38.9632 38.9632 0 0 1-38.9632 38.9632H356.20352a38.9632 38.9632 0 0 1-38.9632-38.9632v-116.88448a38.9632 38.9632 0 0 1 38.9632-38.95808H473.088a38.9632 38.9632 0 0 1 38.9632 38.95808v116.88448z m-38.9632-101.29408a15.58528 15.58528 0 0 0-15.58016-15.5904H371.78368a15.58528 15.58528 0 0 0-15.58016 15.5904v85.71392a15.58016 15.58016 0 0 0 15.58016 15.58016h85.71904a15.57504 15.57504 0 0 0 15.58016-15.58016l0.00512-85.71392z m-58.4448-93.51168c-32.27648 0-58.4448-26.16832-58.4448-58.4448s26.16832-58.4448 58.4448-58.4448S473.088 493.17376 473.088 525.45024s-26.16832 58.4448-58.4448 58.4448z m196.17792 77.92128c31.52384 0 57.07264 25.55904 57.07264 57.07264v2.7392c0 31.51872-25.5488 57.06752-57.07264 57.06752h-2.7392c-31.5136 0-57.06752-25.5488-57.06752-57.06752 0-33.03424 26.7776-59.81184 59.80672-59.81184z" fill="#54955A" p-id="4940"></path></svg>