<?xml version="1.0" standalone="no"?><!DOCTYPE svg PUBLIC "-//W3C//DTD SVG 1.1//EN" "http://www.w3.org/Graphics/SVG/1.1/DTD/svg11.dtd"><svg t="1697095247616" class="icon" viewBox="0 0 1024 1024" version="1.1" xmlns="http://www.w3.org/2000/svg" p-id="8458" xmlns:xlink="http://www.w3.org/1999/xlink" width="48" height="48"><path d="M512 133.12c208.91648 0 378.88 169.96352 378.88 378.88s-169.96352 378.88-378.88 378.88-378.88-169.96352-378.88-378.88 169.96352-378.88 378.88-378.88m0-71.68c-248.83712 0-450.56 201.72288-450.56 450.56s201.72288 450.56 450.56 450.56 450.56-201.72288 450.56-450.56-201.72288-450.56-450.56-450.56z" fill="#2c2c2c" p-id="8459"></path><path d="M497.43872 268.8c-51.65056 0-97.69984 23.9104-127.7184 61.2608C353.11616 350.72 367.93856 381.44 394.4448 381.44h11.13088c9.0112 0 17.52064-3.91168 23.56736-10.59328 16.8704-18.6368 41.23648-30.36672 68.29568-30.36672 2.87744 0 5.77536 0.13312 8.70912 0.40448 38.60992 3.56352 71.3472 31.872 80.70656 69.49888 12.75392 51.28704-20.38272 101.26336-69.19168 112.16384a92.9024 92.9024 0 0 1-40.448 0 12.82048 12.82048 0 0 0-15.62112 12.50304V668.16h71.68v-75.65824c77.34784-17.26976 134.08768-89.17504 127.47264-173.1328-6.3232-80.30208-71.8336-144.90112-152.21248-150.20032a168.33536 168.33536 0 0 0-11.09504-0.36864z" fill="#2c2c2c" p-id="8460"></path><path d="M497.43872 744.96m-51.2 0a51.2 51.2 0 1 0 102.4 0 51.2 51.2 0 1 0-102.4 0Z" fill="#2c2c2c" p-id="8461"></path></svg>