<?xml version="1.0" standalone="no"?>
<!DOCTYPE svg PUBLIC "-//W3C//DTD SVG 1.1//EN" "http://www.w3.org/Graphics/SVG/1.1/DTD/svg11.dtd"><svg t="1692759751671"
    class="icon" viewBox="0 0 1024 1024" version="1.1" xmlns="http://www.w3.org/2000/svg" p-id="5193"
    xmlns:xlink="http://www.w3.org/1999/xlink" width="128" height="128">
    <path
        d="M877.2608 829.44h-341.4016c-47.104 0-85.2992-38.1952-85.2992-85.2992V146.7392C450.56 99.6352 488.7552 61.44 535.8592 61.44h341.2992c47.104 0 85.2992 38.1952 85.2992 85.2992v597.4016c0.1024 47.104-38.0928 85.2992-85.1968 85.2992z m21.2992-661.2992c0-23.6032-19.0976-42.7008-42.7008-42.7008h-298.5984c-23.6032 0-42.7008 19.0976-42.7008 42.7008V573.44h384V168.1408z m0 469.2992h-384v85.2992c0 23.6032 19.0976 42.7008 42.7008 42.7008h298.7008c23.6032 0 42.7008-19.0976 42.7008-42.7008V637.44h-0.1024zM706.56 744.1408c-23.6032 0-42.7008-19.0976-42.7008-42.7008 0-23.6032 19.0976-42.7008 42.7008-42.7008 23.6032 0 42.7008 19.0976 42.7008 42.7008 0 23.6032-19.0976 42.7008-42.7008 42.7008zM298.9568 190.83776C274.36544 205.04064 243.36384 225.9456 215.8592 253.44 159.2576 310.0416 121.856 385.34144 121.856 385.34144a32.0512 32.0512 0 0 1-45.29664 0 32.0512 32.0512 0 0 1 0-45.30176s39.90016-72.6016 96.59904-129.30048c31.50336-31.49824 67.90144-57.79968 94.20288-75.10016L237.1584 82.7392h170.7008L334.76096 253.44 298.9568 190.83776zM151.8592 445.44h213.2992a31.96416 31.96416 0 0 1 32 32 31.96416 31.96416 0 0 1-32 32h-192c-23.6032 0-42.7008 19.0976-42.7008 42.7008v298.7008c0 23.6032 19.0976 42.7008 42.7008 42.7008h576a21.31968 21.31968 0 0 0 21.2992-21.2992 31.96416 31.96416 0 0 1 32-32 31.96416 31.96416 0 0 1 32 32c0 47.09888-38.1952 85.2992-85.2992 85.2992H151.8592c-47.104 0-85.2992-38.20032-85.2992-85.2992v-341.504C66.56 483.6352 104.7552 445.44 151.8592 445.44z"
        fill="#333333" p-id="5194"></path>
</svg>